<svg
                      
                      viewBox="0 0 138 216"
                      fill="none"
                      xmlns="http://www.w3.org/2000/svg"
                    >
                      <path
                        d="M22.972 30.859V32H17.281V21.969H18.632V30.859H22.972ZM26.6615 24.797C27.1795 24.797 27.6462 24.8833 28.0615 25.056C28.4769 25.2287 28.8315 25.4737 29.1255 25.791C29.4195 26.1083 29.6435 26.4933 29.7975 26.946C29.9562 27.394 30.0355 27.8957 30.0355 28.451C30.0355 29.011 29.9562 29.515 29.7975 29.963C29.6435 30.411 29.4195 30.7937 29.1255 31.111C28.8315 31.4283 28.4769 31.6733 28.0615 31.846C27.6462 32.014 27.1795 32.098 26.6615 32.098C26.1389 32.098 25.6675 32.014 25.2475 31.846C24.8322 31.6733 24.4775 31.4283 24.1835 31.111C23.8895 30.7937 23.6632 30.411 23.5045 29.963C23.3505 29.515 23.2735 29.011 23.2735 28.451C23.2735 27.8957 23.3505 27.394 23.5045 26.946C23.6632 26.4933 23.8895 26.1083 24.1835 25.791C24.4775 25.4737 24.8322 25.2287 25.2475 25.056C25.6675 24.8833 26.1389 24.797 26.6615 24.797ZM26.6615 31.125C27.3615 31.125 27.8842 30.8917 28.2295 30.425C28.5749 29.9537 28.7475 29.298 28.7475 28.458C28.7475 27.6133 28.5749 26.9553 28.2295 26.484C27.8842 26.0127 27.3615 25.777 26.6615 25.777C26.3069 25.777 25.9965 25.8377 25.7305 25.959C25.4692 26.0803 25.2499 26.2553 25.0725 26.484C24.8999 26.7127 24.7692 26.995 24.6805 27.331C24.5965 27.6623 24.5545 28.038 24.5545 28.458C24.5545 29.298 24.7272 29.9537 25.0725 30.425C25.4225 30.8917 25.9522 31.125 26.6615 31.125ZM34.0459 28.535C34.2979 28.535 34.5196 28.5 34.7109 28.43C34.9022 28.36 35.0632 28.262 35.1939 28.136C35.3246 28.01 35.4226 27.8607 35.4879 27.688C35.5532 27.5107 35.5859 27.317 35.5859 27.107C35.5859 26.673 35.4529 26.3277 35.1869 26.071C34.9256 25.8143 34.5452 25.686 34.0459 25.686C33.5419 25.686 33.1569 25.8143 32.8909 26.071C32.6296 26.3277 32.4989 26.673 32.4989 27.107C32.4989 27.317 32.5316 27.5107 32.5969 27.688C32.6669 27.8607 32.7672 28.01 32.8979 28.136C33.0286 28.262 33.1896 28.36 33.3809 28.43C33.5722 28.5 33.7939 28.535 34.0459 28.535ZM36.2929 32.385C36.2929 32.2123 36.2439 32.0723 36.1459 31.965C36.0479 31.8577 35.9149 31.7737 35.7469 31.713C35.5836 31.6523 35.3922 31.6103 35.1729 31.587C34.9536 31.559 34.7202 31.538 34.4729 31.524C34.2302 31.51 33.9829 31.496 33.7309 31.482C33.4789 31.468 33.2362 31.4447 33.0029 31.412C32.7416 31.5333 32.5269 31.6873 32.3589 31.874C32.1956 32.056 32.1139 32.2707 32.1139 32.518C32.1139 32.6767 32.1536 32.8237 32.2329 32.959C32.3169 33.099 32.4429 33.218 32.6109 33.316C32.7789 33.4187 32.9889 33.498 33.2409 33.554C33.4976 33.6147 33.7986 33.645 34.1439 33.645C34.4799 33.645 34.7809 33.6147 35.0469 33.554C35.3129 33.4933 35.5369 33.407 35.7189 33.295C35.9056 33.183 36.0479 33.05 36.1459 32.896C36.2439 32.742 36.2929 32.5717 36.2929 32.385ZM37.5599 25.189V25.651C37.5599 25.805 37.4619 25.903 37.2659 25.945L36.4609 26.05C36.6196 26.358 36.6989 26.6987 36.6989 27.072C36.6989 27.4173 36.6312 27.7323 36.4959 28.017C36.3652 28.297 36.1832 28.5373 35.9499 28.738C35.7166 28.9387 35.4366 29.0927 35.1099 29.2C34.7832 29.3073 34.4286 29.361 34.0459 29.361C33.7146 29.361 33.4019 29.3213 33.1079 29.242C32.9586 29.3353 32.8442 29.4357 32.7649 29.543C32.6856 29.6457 32.6459 29.7507 32.6459 29.858C32.6459 30.026 32.7136 30.1543 32.8489 30.243C32.9889 30.327 33.1709 30.3877 33.3949 30.425C33.6189 30.4623 33.8732 30.4857 34.1579 30.495C34.4472 30.5043 34.7412 30.5207 35.0399 30.544C35.3432 30.5627 35.6372 30.5977 35.9219 30.649C36.2112 30.7003 36.4679 30.7843 36.6919 30.901C36.9159 31.0177 37.0956 31.1787 37.2309 31.384C37.3709 31.5893 37.4409 31.8553 37.4409 32.182C37.4409 32.4853 37.3639 32.7793 37.2099 33.064C37.0606 33.3487 36.8436 33.6007 36.5589 33.82C36.2742 34.044 35.9242 34.2213 35.5089 34.352C35.0982 34.4873 34.6339 34.555 34.1159 34.555C33.5979 34.555 33.1452 34.5037 32.7579 34.401C32.3706 34.2983 32.0486 34.1607 31.7919 33.988C31.5352 33.8153 31.3416 33.6147 31.2109 33.386C31.0849 33.162 31.0219 32.9263 31.0219 32.679C31.0219 32.329 31.1316 32.0327 31.3509 31.79C31.5702 31.5473 31.8712 31.3537 32.2539 31.209C32.0439 31.1157 31.8759 30.992 31.7499 30.838C31.6286 30.6793 31.5679 30.467 31.5679 30.201C31.5679 30.0983 31.5866 29.9933 31.6239 29.886C31.6612 29.774 31.7172 29.6643 31.7919 29.557C31.8712 29.445 31.9669 29.34 32.0789 29.242C32.1909 29.144 32.3216 29.0577 32.4709 28.983C32.1209 28.787 31.8479 28.528 31.6519 28.206C31.4559 27.8793 31.3579 27.5013 31.3579 27.072C31.3579 26.7267 31.4232 26.414 31.5539 26.134C31.6892 25.8493 31.8759 25.609 32.1139 25.413C32.3519 25.2123 32.6342 25.0583 32.9609 24.951C33.2922 24.8437 33.6539 24.79 34.0459 24.79C34.3539 24.79 34.6409 24.825 34.9069 24.895C35.1729 24.9603 35.4156 25.0583 35.6349 25.189H37.5599ZM41.728 24.797C42.246 24.797 42.7126 24.8833 43.128 25.056C43.5433 25.2287 43.898 25.4737 44.192 25.791C44.486 26.1083 44.71 26.4933 44.864 26.946C45.0226 27.394 45.102 27.8957 45.102 28.451C45.102 29.011 45.0226 29.515 44.864 29.963C44.71 30.411 44.486 30.7937 44.192 31.111C43.898 31.4283 43.5433 31.6733 43.128 31.846C42.7126 32.014 42.246 32.098 41.728 32.098C41.2053 32.098 40.734 32.014 40.314 31.846C39.8986 31.6733 39.544 31.4283 39.25 31.111C38.956 30.7937 38.7296 30.411 38.571 29.963C38.417 29.515 38.34 29.011 38.34 28.451C38.34 27.8957 38.417 27.394 38.571 26.946C38.7296 26.4933 38.956 26.1083 39.25 25.791C39.544 25.4737 39.8986 25.2287 40.314 25.056C40.734 24.8833 41.2053 24.797 41.728 24.797ZM41.728 31.125C42.428 31.125 42.9506 30.8917 43.296 30.425C43.6413 29.9537 43.814 29.298 43.814 28.458C43.814 27.6133 43.6413 26.9553 43.296 26.484C42.9506 26.0127 42.428 25.777 41.728 25.777C41.3733 25.777 41.063 25.8377 40.797 25.959C40.5356 26.0803 40.3163 26.2553 40.139 26.484C39.9663 26.7127 39.8356 26.995 39.747 27.331C39.663 27.6623 39.621 28.038 39.621 28.458C39.621 29.298 39.7936 29.9537 40.139 30.425C40.489 30.8917 41.0186 31.125 41.728 31.125Z"
                        fill="#333333"
                      />
                      <rect
                        x="15.5"
                        y="44.5"
                        width="107"
                        height="107"
                        rx="8.5"
                        fill="#EAF1FD"
                        stroke="#2971EB"
                        stroke-dasharray="10 10"
                      />
                      <circle cx="69" cy="124" r="14" fill="#2971EB" />
                      <path
                        d="M69 117L69 131"
                        stroke="white"
                        stroke-width="2.33333"
                        stroke-linecap="round"
                      />
                      <path
                        d="M76 124.467L62 124.467"
                        stroke="white"
                        stroke-width="2.33333"
                        stroke-linecap="round"
                      />
                      <g clip-path="url(#clip0_296_17478)">
                        <path
                          d="M88.5 96.1667V65.8333C88.5 63.45 86.55 61.5 84.1667 61.5H53.8333C51.45 61.5 49.5 63.45 49.5 65.8333V96.1667C49.5 98.55 51.45 100.5 53.8333 100.5H84.1667C86.55 100.5 88.5 98.55 88.5 96.1667ZM61.4167 84.25L66.8333 90.7717L74.4167 81L84.1667 94H53.8333L61.4167 84.25Z"
                          fill="#2971EB"
                        />
                      </g>
                      <path
                        d="M25.975 167.988C25.975 168.739 25.856 169.423 25.618 170.039C25.38 170.655 25.044 171.182 24.61 171.621C24.176 172.06 23.6533 172.4 23.042 172.643C22.4353 172.881 21.7633 173 21.026 173H17.281V162.969H21.026C21.7633 162.969 22.4353 163.09 23.042 163.333C23.6533 163.571 24.176 163.912 24.61 164.355C25.044 164.794 25.38 165.321 25.618 165.937C25.856 166.553 25.975 167.237 25.975 167.988ZM24.582 167.988C24.582 167.372 24.498 166.821 24.33 166.336C24.162 165.851 23.924 165.44 23.616 165.104C23.308 164.768 22.9347 164.511 22.496 164.334C22.0573 164.157 21.5673 164.068 21.026 164.068H18.639V171.901H21.026C21.5673 171.901 22.0573 171.812 22.496 171.635C22.9347 171.458 23.308 171.203 23.616 170.872C23.924 170.536 24.162 170.125 24.33 169.64C24.498 169.155 24.582 168.604 24.582 167.988ZM28.67 167.33C28.894 166.845 29.1693 166.467 29.496 166.196C29.8227 165.921 30.2217 165.783 30.693 165.783C30.8423 165.783 30.9847 165.799 31.12 165.832C31.26 165.865 31.3837 165.916 31.491 165.986L31.4 166.917C31.372 167.034 31.302 167.092 31.19 167.092C31.1247 167.092 31.029 167.078 30.903 167.05C30.777 167.022 30.6347 167.008 30.476 167.008C30.252 167.008 30.0513 167.041 29.874 167.106C29.7013 167.171 29.545 167.269 29.405 167.4C29.2697 167.526 29.146 167.685 29.034 167.876C28.9267 168.063 28.8287 168.277 28.74 168.52V173H27.487V165.909H28.201C28.3363 165.909 28.4297 165.935 28.481 165.986C28.5323 166.037 28.5673 166.126 28.586 166.252L28.67 167.33ZM36.3202 169.808C35.7462 169.827 35.2562 169.873 34.8502 169.948C34.4489 170.018 34.1199 170.111 33.8632 170.228C33.6112 170.345 33.4269 170.482 33.3102 170.641C33.1982 170.8 33.1422 170.977 33.1422 171.173C33.1422 171.36 33.1726 171.521 33.2332 171.656C33.2939 171.791 33.3756 171.903 33.4782 171.992C33.5856 172.076 33.7092 172.139 33.8492 172.181C33.9939 172.218 34.1479 172.237 34.3112 172.237C34.5306 172.237 34.7312 172.216 34.9132 172.174C35.0952 172.127 35.2656 172.062 35.4242 171.978C35.5876 171.894 35.7416 171.794 35.8862 171.677C36.0356 171.56 36.1802 171.427 36.3202 171.278V169.808ZM32.2952 166.91C32.6872 166.532 33.1096 166.25 33.5622 166.063C34.0149 165.876 34.5166 165.783 35.0672 165.783C35.4639 165.783 35.8162 165.848 36.1242 165.979C36.4322 166.11 36.6912 166.292 36.9012 166.525C37.1112 166.758 37.2699 167.041 37.3772 167.372C37.4846 167.703 37.5382 168.067 37.5382 168.464V173H36.9852C36.8639 173 36.7706 172.981 36.7052 172.944C36.6399 172.902 36.5886 172.823 36.5512 172.706L36.4112 172.034C36.2246 172.207 36.0426 172.361 35.8652 172.496C35.6879 172.627 35.5012 172.739 35.3052 172.832C35.1092 172.921 34.8992 172.988 34.6752 173.035C34.4559 173.086 34.2109 173.112 33.9402 173.112C33.6649 173.112 33.4059 173.075 33.1632 173C32.9206 172.921 32.7082 172.804 32.5262 172.65C32.3489 172.496 32.2066 172.302 32.0992 172.069C31.9966 171.831 31.9452 171.551 31.9452 171.229C31.9452 170.949 32.0222 170.681 32.1762 170.424C32.3302 170.163 32.5799 169.932 32.9252 169.731C33.2706 169.53 33.7209 169.367 34.2762 169.241C34.8316 169.11 35.5129 169.036 36.3202 169.017V168.464C36.3202 167.913 36.2012 167.498 35.9632 167.218C35.7252 166.933 35.3776 166.791 34.9202 166.791C34.6122 166.791 34.3532 166.831 34.1432 166.91C33.9379 166.985 33.7582 167.071 33.6042 167.169C33.4549 167.262 33.3242 167.349 33.2122 167.428C33.1049 167.503 32.9976 167.54 32.8902 167.54C32.8062 167.54 32.7339 167.519 32.6732 167.477C32.6126 167.43 32.5612 167.374 32.5192 167.309L32.2952 166.91ZM41.9072 169.535C42.1592 169.535 42.3809 169.5 42.5722 169.43C42.7636 169.36 42.9246 169.262 43.0552 169.136C43.1859 169.01 43.2839 168.861 43.3492 168.688C43.4146 168.511 43.4472 168.317 43.4472 168.107C43.4472 167.673 43.3142 167.328 43.0482 167.071C42.7869 166.814 42.4066 166.686 41.9072 166.686C41.4032 166.686 41.0182 166.814 40.7522 167.071C40.4909 167.328 40.3602 167.673 40.3602 168.107C40.3602 168.317 40.3929 168.511 40.4582 168.688C40.5282 168.861 40.6286 169.01 40.7592 169.136C40.8899 169.262 41.0509 169.36 41.2422 169.43C41.4336 169.5 41.6552 169.535 41.9072 169.535ZM44.1542 173.385C44.1542 173.212 44.1052 173.072 44.0072 172.965C43.9092 172.858 43.7762 172.774 43.6082 172.713C43.4449 172.652 43.2536 172.61 43.0342 172.587C42.8149 172.559 42.5816 172.538 42.3342 172.524C42.0916 172.51 41.8442 172.496 41.5922 172.482C41.3402 172.468 41.0976 172.445 40.8642 172.412C40.6029 172.533 40.3882 172.687 40.2202 172.874C40.0569 173.056 39.9752 173.271 39.9752 173.518C39.9752 173.677 40.0149 173.824 40.0942 173.959C40.1782 174.099 40.3042 174.218 40.4722 174.316C40.6402 174.419 40.8502 174.498 41.1022 174.554C41.3589 174.615 41.6599 174.645 42.0052 174.645C42.3412 174.645 42.6422 174.615 42.9082 174.554C43.1742 174.493 43.3982 174.407 43.5802 174.295C43.7669 174.183 43.9092 174.05 44.0072 173.896C44.1052 173.742 44.1542 173.572 44.1542 173.385ZM45.4212 166.189V166.651C45.4212 166.805 45.3232 166.903 45.1272 166.945L44.3222 167.05C44.4809 167.358 44.5602 167.699 44.5602 168.072C44.5602 168.417 44.4926 168.732 44.3572 169.017C44.2266 169.297 44.0446 169.537 43.8112 169.738C43.5779 169.939 43.2979 170.093 42.9712 170.2C42.6446 170.307 42.2899 170.361 41.9072 170.361C41.5759 170.361 41.2632 170.321 40.9692 170.242C40.8199 170.335 40.7056 170.436 40.6262 170.543C40.5469 170.646 40.5072 170.751 40.5072 170.858C40.5072 171.026 40.5749 171.154 40.7102 171.243C40.8502 171.327 41.0322 171.388 41.2562 171.425C41.4802 171.462 41.7346 171.486 42.0192 171.495C42.3086 171.504 42.6026 171.521 42.9012 171.544C43.2046 171.563 43.4986 171.598 43.7832 171.649C44.0726 171.7 44.3292 171.784 44.5532 171.901C44.7772 172.018 44.9569 172.179 45.0922 172.384C45.2322 172.589 45.3022 172.855 45.3022 173.182C45.3022 173.485 45.2252 173.779 45.0712 174.064C44.9219 174.349 44.7049 174.601 44.4202 174.82C44.1356 175.044 43.7856 175.221 43.3702 175.352C42.9596 175.487 42.4952 175.555 41.9772 175.555C41.4592 175.555 41.0066 175.504 40.6192 175.401C40.2319 175.298 39.9099 175.161 39.6532 174.988C39.3966 174.815 39.2029 174.615 39.0722 174.386C38.9462 174.162 38.8832 173.926 38.8832 173.679C38.8832 173.329 38.9929 173.033 39.2122 172.79C39.4316 172.547 39.7326 172.354 40.1152 172.209C39.9052 172.116 39.7372 171.992 39.6112 171.838C39.4899 171.679 39.4292 171.467 39.4292 171.201C39.4292 171.098 39.4479 170.993 39.4852 170.886C39.5226 170.774 39.5786 170.664 39.6532 170.557C39.7326 170.445 39.8282 170.34 39.9402 170.242C40.0522 170.144 40.1829 170.058 40.3322 169.983C39.9822 169.787 39.7092 169.528 39.5132 169.206C39.3172 168.879 39.2192 168.501 39.2192 168.072C39.2192 167.727 39.2846 167.414 39.4152 167.134C39.5506 166.849 39.7372 166.609 39.9752 166.413C40.2132 166.212 40.4956 166.058 40.8222 165.951C41.1536 165.844 41.5152 165.79 41.9072 165.79C42.2152 165.79 42.5022 165.825 42.7682 165.895C43.0342 165.96 43.2769 166.058 43.4962 166.189H45.4212ZM54.1347 169.808C53.5607 169.827 53.0707 169.873 52.6647 169.948C52.2634 170.018 51.9344 170.111 51.6777 170.228C51.4257 170.345 51.2414 170.482 51.1247 170.641C51.0127 170.8 50.9567 170.977 50.9567 171.173C50.9567 171.36 50.987 171.521 51.0477 171.656C51.1084 171.791 51.19 171.903 51.2927 171.992C51.4 172.076 51.5237 172.139 51.6637 172.181C51.8084 172.218 51.9624 172.237 52.1257 172.237C52.345 172.237 52.5457 172.216 52.7277 172.174C52.9097 172.127 53.08 172.062 53.2387 171.978C53.402 171.894 53.556 171.794 53.7007 171.677C53.85 171.56 53.9947 171.427 54.1347 171.278V169.808ZM50.1097 166.91C50.5017 166.532 50.924 166.25 51.3767 166.063C51.8294 165.876 52.331 165.783 52.8817 165.783C53.2784 165.783 53.6307 165.848 53.9387 165.979C54.2467 166.11 54.5057 166.292 54.7157 166.525C54.9257 166.758 55.0844 167.041 55.1917 167.372C55.299 167.703 55.3527 168.067 55.3527 168.464V173H54.7997C54.6784 173 54.585 172.981 54.5197 172.944C54.4544 172.902 54.403 172.823 54.3657 172.706L54.2257 172.034C54.039 172.207 53.857 172.361 53.6797 172.496C53.5024 172.627 53.3157 172.739 53.1197 172.832C52.9237 172.921 52.7137 172.988 52.4897 173.035C52.2704 173.086 52.0254 173.112 51.7547 173.112C51.4794 173.112 51.2204 173.075 50.9777 173C50.735 172.921 50.5227 172.804 50.3407 172.65C50.1634 172.496 50.021 172.302 49.9137 172.069C49.811 171.831 49.7597 171.551 49.7597 171.229C49.7597 170.949 49.8367 170.681 49.9907 170.424C50.1447 170.163 50.3944 169.932 50.7397 169.731C51.085 169.53 51.5354 169.367 52.0907 169.241C52.646 169.11 53.3274 169.036 54.1347 169.017V168.464C54.1347 167.913 54.0157 167.498 53.7777 167.218C53.5397 166.933 53.192 166.791 52.7347 166.791C52.4267 166.791 52.1677 166.831 51.9577 166.91C51.7524 166.985 51.5727 167.071 51.4187 167.169C51.2694 167.262 51.1387 167.349 51.0267 167.428C50.9194 167.503 50.812 167.54 50.7047 167.54C50.6207 167.54 50.5484 167.519 50.4877 167.477C50.427 167.43 50.3757 167.374 50.3337 167.309L50.1097 166.91ZM58.4267 166.938C58.5807 166.765 58.744 166.609 58.9167 166.469C59.0893 166.329 59.2713 166.21 59.4627 166.112C59.6587 166.009 59.864 165.932 60.0787 165.881C60.298 165.825 60.5337 165.797 60.7857 165.797C61.173 165.797 61.5137 165.862 61.8077 165.993C62.1063 166.119 62.3537 166.301 62.5497 166.539C62.7503 166.772 62.902 167.055 63.0047 167.386C63.1073 167.717 63.1587 168.084 63.1587 168.485V173H61.9057V168.485C61.9057 167.948 61.782 167.533 61.5347 167.239C61.292 166.94 60.921 166.791 60.4217 166.791C60.053 166.791 59.7077 166.88 59.3857 167.057C59.0683 167.234 58.7743 167.475 58.5037 167.778V173H57.2507V165.909H57.9997C58.177 165.909 58.2867 165.995 58.3287 166.168L58.4267 166.938ZM69.6773 167.596C69.444 167.283 69.192 167.066 68.9213 166.945C68.6506 166.819 68.3473 166.756 68.0113 166.756C67.3533 166.756 66.847 166.992 66.4923 167.463C66.1376 167.934 65.9603 168.606 65.9603 169.479C65.9603 169.941 66 170.338 66.0793 170.669C66.1586 170.996 66.2753 171.266 66.4293 171.481C66.5833 171.691 66.7723 171.845 66.9963 171.943C67.2203 172.041 67.4746 172.09 67.7593 172.09C68.17 172.09 68.527 171.997 68.8303 171.81C69.1383 171.623 69.4206 171.36 69.6773 171.019V167.596ZM70.9233 162.689V173H70.1813C70.004 173 69.892 172.914 69.8453 172.741L69.7333 171.88C69.43 172.244 69.0846 172.538 68.6973 172.762C68.31 172.986 67.862 173.098 67.3533 173.098C66.9473 173.098 66.5786 173.021 66.2473 172.867C65.916 172.708 65.6336 172.477 65.4003 172.174C65.167 171.871 64.9873 171.493 64.8613 171.04C64.7353 170.587 64.6723 170.067 64.6723 169.479C64.6723 168.956 64.7423 168.471 64.8823 168.023C65.0223 167.57 65.223 167.178 65.4843 166.847C65.7456 166.516 66.0653 166.257 66.4433 166.07C66.826 165.879 67.2553 165.783 67.7313 165.783C68.1653 165.783 68.5363 165.858 68.8443 166.007C69.157 166.152 69.4346 166.355 69.6773 166.616V162.689H70.9233ZM81.0933 167.596C80.86 167.283 80.608 167.066 80.3373 166.945C80.0667 166.819 79.7633 166.756 79.4273 166.756C78.7693 166.756 78.263 166.992 77.9083 167.463C77.5537 167.934 77.3763 168.606 77.3763 169.479C77.3763 169.941 77.416 170.338 77.4953 170.669C77.5747 170.996 77.6913 171.266 77.8453 171.481C77.9993 171.691 78.1883 171.845 78.4123 171.943C78.6363 172.041 78.8907 172.09 79.1753 172.09C79.586 172.09 79.943 171.997 80.2463 171.81C80.5543 171.623 80.8367 171.36 81.0933 171.019V167.596ZM82.3393 162.689V173H81.5973C81.42 173 81.308 172.914 81.2613 172.741L81.1493 171.88C80.846 172.244 80.5007 172.538 80.1133 172.762C79.726 172.986 79.278 173.098 78.7693 173.098C78.3633 173.098 77.9947 173.021 77.6633 172.867C77.332 172.708 77.0497 172.477 76.8163 172.174C76.583 171.871 76.4033 171.493 76.2773 171.04C76.1513 170.587 76.0883 170.067 76.0883 169.479C76.0883 168.956 76.1583 168.471 76.2983 168.023C76.4383 167.57 76.639 167.178 76.9003 166.847C77.1617 166.516 77.4813 166.257 77.8593 166.07C78.242 165.879 78.6713 165.783 79.1473 165.783C79.5813 165.783 79.9523 165.858 80.2603 166.007C80.573 166.152 80.8507 166.355 81.0933 166.616V162.689H82.3393ZM85.4903 167.33C85.7143 166.845 85.9896 166.467 86.3163 166.196C86.643 165.921 87.042 165.783 87.5133 165.783C87.6626 165.783 87.805 165.799 87.9403 165.832C88.0803 165.865 88.204 165.916 88.3113 165.986L88.2203 166.917C88.1923 167.034 88.1223 167.092 88.0103 167.092C87.945 167.092 87.8493 167.078 87.7233 167.05C87.5973 167.022 87.455 167.008 87.2963 167.008C87.0723 167.008 86.8716 167.041 86.6943 167.106C86.5216 167.171 86.3653 167.269 86.2253 167.4C86.09 167.526 85.9663 167.685 85.8543 167.876C85.747 168.063 85.649 168.277 85.5603 168.52V173H84.3073V165.909H85.0213C85.1566 165.909 85.25 165.935 85.3013 165.986C85.3526 166.037 85.3876 166.126 85.4063 166.252L85.4903 167.33ZM92.1088 165.797C92.6268 165.797 93.0935 165.883 93.5088 166.056C93.9241 166.229 94.2788 166.474 94.5728 166.791C94.8668 167.108 95.0908 167.493 95.2448 167.946C95.4035 168.394 95.4828 168.896 95.4828 169.451C95.4828 170.011 95.4035 170.515 95.2448 170.963C95.0908 171.411 94.8668 171.794 94.5728 172.111C94.2788 172.428 93.9241 172.673 93.5088 172.846C93.0935 173.014 92.6268 173.098 92.1088 173.098C91.5861 173.098 91.1148 173.014 90.6948 172.846C90.2795 172.673 89.9248 172.428 89.6308 172.111C89.3368 171.794 89.1105 171.411 88.9518 170.963C88.7978 170.515 88.7208 170.011 88.7208 169.451C88.7208 168.896 88.7978 168.394 88.9518 167.946C89.1105 167.493 89.3368 167.108 89.6308 166.791C89.9248 166.474 90.2795 166.229 90.6948 166.056C91.1148 165.883 91.5861 165.797 92.1088 165.797ZM92.1088 172.125C92.8088 172.125 93.3315 171.892 93.6768 171.425C94.0221 170.954 94.1948 170.298 94.1948 169.458C94.1948 168.613 94.0221 167.955 93.6768 167.484C93.3315 167.013 92.8088 166.777 92.1088 166.777C91.7541 166.777 91.4438 166.838 91.1778 166.959C90.9165 167.08 90.6971 167.255 90.5198 167.484C90.3471 167.713 90.2165 167.995 90.1278 168.331C90.0438 168.662 90.0018 169.038 90.0018 169.458C90.0018 170.298 90.1745 170.954 90.5198 171.425C90.8698 171.892 91.3995 172.125 92.1088 172.125ZM98.3162 171.292C98.5448 171.6 98.7945 171.817 99.0652 171.943C99.3358 172.069 99.6392 172.132 99.9752 172.132C100.638 172.132 101.147 171.896 101.501 171.425C101.856 170.954 102.033 170.282 102.033 169.409C102.033 168.947 101.991 168.55 101.907 168.219C101.828 167.888 101.711 167.617 101.557 167.407C101.403 167.192 101.214 167.036 100.99 166.938C100.766 166.84 100.512 166.791 100.227 166.791C99.8212 166.791 99.4642 166.884 99.1562 167.071C98.8528 167.258 98.5728 167.521 98.3162 167.862V171.292ZM98.2532 167.008C98.5518 166.639 98.8972 166.343 99.2892 166.119C99.6812 165.895 100.129 165.783 100.633 165.783C101.044 165.783 101.415 165.862 101.746 166.021C102.078 166.175 102.36 166.406 102.593 166.714C102.827 167.017 103.006 167.395 103.132 167.848C103.258 168.301 103.321 168.821 103.321 169.409C103.321 169.932 103.251 170.419 103.111 170.872C102.971 171.32 102.768 171.71 102.502 172.041C102.241 172.368 101.919 172.627 101.536 172.818C101.158 173.005 100.731 173.098 100.255 173.098C99.8212 173.098 99.4478 173.026 99.1352 172.881C98.8272 172.732 98.5542 172.526 98.3162 172.265V175.401H97.0632V165.909H97.8122C97.9895 165.909 98.0992 165.995 98.1412 166.168L98.2532 167.008ZM111.482 165.797C112 165.797 112.467 165.883 112.882 166.056C113.297 166.229 113.652 166.474 113.946 166.791C114.24 167.108 114.464 167.493 114.618 167.946C114.777 168.394 114.856 168.896 114.856 169.451C114.856 170.011 114.777 170.515 114.618 170.963C114.464 171.411 114.24 171.794 113.946 172.111C113.652 172.428 113.297 172.673 112.882 172.846C112.467 173.014 112 173.098 111.482 173.098C110.959 173.098 110.488 173.014 110.068 172.846C109.653 172.673 109.298 172.428 109.004 172.111C108.71 171.794 108.484 171.411 108.325 170.963C108.171 170.515 108.094 170.011 108.094 169.451C108.094 168.896 108.171 168.394 108.325 167.946C108.484 167.493 108.71 167.108 109.004 166.791C109.298 166.474 109.653 166.229 110.068 166.056C110.488 165.883 110.959 165.797 111.482 165.797ZM111.482 172.125C112.182 172.125 112.705 171.892 113.05 171.425C113.395 170.954 113.568 170.298 113.568 169.458C113.568 168.613 113.395 167.955 113.05 167.484C112.705 167.013 112.182 166.777 111.482 166.777C111.127 166.777 110.817 166.838 110.551 166.959C110.29 167.08 110.07 167.255 109.893 167.484C109.72 167.713 109.59 167.995 109.501 168.331C109.417 168.662 109.375 169.038 109.375 169.458C109.375 170.298 109.548 170.954 109.893 171.425C110.243 171.892 110.773 172.125 111.482 172.125ZM117.619 167.33C117.843 166.845 118.119 166.467 118.445 166.196C118.772 165.921 119.171 165.783 119.642 165.783C119.792 165.783 119.934 165.799 120.069 165.832C120.209 165.865 120.333 165.916 120.44 165.986L120.349 166.917C120.321 167.034 120.251 167.092 120.139 167.092C120.074 167.092 119.978 167.078 119.852 167.05C119.726 167.022 119.584 167.008 119.425 167.008C119.201 167.008 119.001 167.041 118.823 167.106C118.651 167.171 118.494 167.269 118.354 167.4C118.219 167.526 118.095 167.685 117.983 167.876C117.876 168.063 117.778 168.277 117.689 168.52V173H116.436V165.909H117.15C117.286 165.909 117.379 165.935 117.43 165.986C117.482 166.037 117.517 166.126 117.535 166.252L117.619 167.33Z"
                        fill="#717171"
                      />
                      <path
                        d="M25.496 185.746C25.46 185.806 25.42 185.852 25.376 185.884C25.336 185.912 25.286 185.926 25.226 185.926C25.158 185.926 25.078 185.892 24.986 185.824C24.894 185.756 24.778 185.682 24.638 185.602C24.502 185.518 24.336 185.442 24.14 185.374C23.948 185.306 23.714 185.272 23.438 185.272C23.178 185.272 22.948 185.308 22.748 185.38C22.552 185.448 22.386 185.542 22.25 185.662C22.118 185.782 22.018 185.924 21.95 186.088C21.882 186.248 21.848 186.422 21.848 186.61C21.848 186.85 21.906 187.05 22.022 187.21C22.142 187.366 22.298 187.5 22.49 187.612C22.686 187.724 22.906 187.822 23.15 187.906C23.398 187.986 23.65 188.07 23.906 188.158C24.166 188.246 24.418 188.346 24.662 188.458C24.91 188.566 25.13 188.704 25.322 188.872C25.518 189.04 25.674 189.246 25.79 189.49C25.91 189.734 25.97 190.034 25.97 190.39C25.97 190.766 25.906 191.12 25.778 191.452C25.65 191.78 25.462 192.066 25.214 192.31C24.97 192.554 24.668 192.746 24.308 192.886C23.952 193.026 23.546 193.096 23.09 193.096C22.53 193.096 22.022 192.996 21.566 192.796C21.11 192.592 20.72 192.318 20.396 191.974L20.732 191.422C20.764 191.378 20.802 191.342 20.846 191.314C20.894 191.282 20.946 191.266 21.002 191.266C21.054 191.266 21.112 191.288 21.176 191.332C21.244 191.372 21.32 191.424 21.404 191.488C21.488 191.552 21.584 191.622 21.692 191.698C21.8 191.774 21.922 191.844 22.058 191.908C22.198 191.972 22.356 192.026 22.532 192.07C22.708 192.11 22.906 192.13 23.126 192.13C23.402 192.13 23.648 192.092 23.864 192.016C24.08 191.94 24.262 191.834 24.41 191.698C24.562 191.558 24.678 191.392 24.758 191.2C24.838 191.008 24.878 190.794 24.878 190.558C24.878 190.298 24.818 190.086 24.698 189.922C24.582 189.754 24.428 189.614 24.236 189.502C24.044 189.39 23.824 189.296 23.576 189.22C23.328 189.14 23.076 189.06 22.82 188.98C22.564 188.896 22.312 188.8 22.064 188.692C21.816 188.584 21.596 188.444 21.404 188.272C21.212 188.1 21.056 187.886 20.936 187.63C20.82 187.37 20.762 187.05 20.762 186.67C20.762 186.366 20.82 186.072 20.936 185.788C21.056 185.504 21.228 185.252 21.452 185.032C21.68 184.812 21.958 184.636 22.286 184.504C22.618 184.372 22.998 184.306 23.426 184.306C23.906 184.306 24.342 184.382 24.734 184.534C25.13 184.686 25.478 184.906 25.778 185.194L25.496 185.746ZM33.1176 192.052L33.1116 193H27.8136V184.402H33.1116V185.35H28.9776V188.206H32.3256V189.118H28.9776V192.052H33.1176ZM39.8174 192.022V193H34.9394V184.402H36.0974V192.022H39.8174ZM46.6075 192.052L46.6015 193H41.3035V184.402H46.6015V185.35H42.4675V188.206H45.8155V189.118H42.4675V192.052H46.6075ZM54.2777 191.224C54.3417 191.224 54.3977 191.25 54.4457 191.302L54.9077 191.8C54.5557 192.208 54.1277 192.526 53.6237 192.754C53.1237 192.982 52.5177 193.096 51.8057 193.096C51.1897 193.096 50.6297 192.99 50.1257 192.778C49.6217 192.562 49.1917 192.262 48.8357 191.878C48.4797 191.49 48.2037 191.026 48.0077 190.486C47.8117 189.946 47.7137 189.352 47.7137 188.704C47.7137 188.056 47.8157 187.462 48.0197 186.922C48.2237 186.382 48.5097 185.918 48.8777 185.53C49.2497 185.142 49.6937 184.842 50.2097 184.63C50.7257 184.414 51.2957 184.306 51.9197 184.306C52.5317 184.306 53.0717 184.404 53.5397 184.6C54.0077 184.796 54.4197 185.062 54.7757 185.398L54.3917 185.932C54.3677 185.972 54.3357 186.006 54.2957 186.034C54.2597 186.058 54.2097 186.07 54.1457 186.07C54.0737 186.07 53.9857 186.032 53.8817 185.956C53.7777 185.876 53.6417 185.788 53.4737 185.692C53.3057 185.596 53.0957 185.51 52.8437 185.434C52.5917 185.354 52.2817 185.314 51.9137 185.314C51.4697 185.314 51.0637 185.392 50.6957 185.548C50.3277 185.7 50.0097 185.922 49.7417 186.214C49.4777 186.506 49.2717 186.862 49.1237 187.282C48.9757 187.702 48.9017 188.176 48.9017 188.704C48.9017 189.24 48.9777 189.718 49.1297 190.138C49.2857 190.558 49.4957 190.914 49.7597 191.206C50.0277 191.494 50.3417 191.714 50.7017 191.866C51.0657 192.018 51.4577 192.094 51.8777 192.094C52.1337 192.094 52.3637 192.08 52.5677 192.052C52.7757 192.02 52.9657 191.972 53.1377 191.908C53.3137 191.844 53.4757 191.764 53.6237 191.668C53.7757 191.568 53.9257 191.45 54.0737 191.314C54.1417 191.254 54.2097 191.224 54.2777 191.224ZM62.2714 185.38H59.4874V193H58.3294V185.38H55.5394V184.402H62.2714V185.38ZM67.8183 185.35V188.356H71.3523V189.304H67.8183V193H66.6543V184.402H71.9523V185.35H67.8183ZM74.8034 193H73.6394V184.402H74.8034V193ZM82.0807 192.022V193H77.2027V184.402H78.3607V192.022H82.0807ZM88.8708 192.052L88.8648 193H83.5668V184.402H88.8648V185.35H84.7308V188.206H88.0788V189.118H84.7308V192.052H88.8708Z"
                        fill="#2971EB"
                      />
                      <defs>
                        <clipPath id="clip0_296_17478">
                          <rect
                            width="52"
                            height="52"
                            fill="white"
                            transform="translate(43 55)"
                          />
                        </clipPath>
                      </defs>
                    </svg>