<svg viewBox="0 0 48 48" fill="none" xmlns="http://www.w3.org/2000/svg">
<path d="M24 0C48 0 48 11.25 48 24C48 36.75 48 48 24 48C0 48 0 36.75 0 24C0 11.25 0 0 24 0Z" fill="#F4F4F4"/>
<g clip-path="url(#clip0_273_30004)">
<path d="M29.27 23.9488L31.0362 22.1825L26.8175 17.9638L25.0512 19.73L20.3938 15.0838C19.5163 14.2063 18.0875 14.2063 17.21 15.0838L15.0725 17.2213C14.195 18.0988 14.195 19.5275 15.0725 20.405L19.7188 25.0513L14.375 30.4063V34.625H18.5938L23.9488 29.27L28.595 33.9163C29.6638 34.985 31.1037 34.5913 31.7787 33.9163L33.9163 31.7788C34.7938 30.9013 34.7938 29.4725 33.9163 28.595L29.27 23.9488ZM21.3275 23.4538L16.67 18.8075L18.7962 16.67L20.225 18.0988L18.8975 19.4375L20.4838 21.0238L21.8225 19.685L23.4537 21.3163L21.3275 23.4538ZM30.1925 32.33L25.5463 27.6838L27.6838 25.5463L29.315 27.1775L27.9762 28.5163L29.5625 30.1025L30.9013 28.7638L32.33 30.1925L30.1925 32.33Z" fill="#636363"/>
<path d="M34.299 18.92C34.7377 18.4812 34.7377 17.7725 34.299 17.3337L31.6665 14.7012C31.1377 14.1725 30.4065 14.375 30.0802 14.7012L28.0215 16.76L32.2402 20.9787L34.299 18.92Z" fill="#636363"/>
</g>
<defs>
<clipPath id="clip0_273_30004">
<rect width="27" height="27" fill="white" transform="translate(11 11)"/>
</clipPath>
</defs>
</svg>
