<svg viewBox="0 0 48 48" fill="none" xmlns="http://www.w3.org/2000/svg">
<path d="M24 0C48 0 48 11.25 48 24C48 36.75 48 48 24 48C0 48 0 36.75 0 24C0 11.25 0 0 24 0Z" fill="#F4F4F4"/>
<path d="M35.63 20.5296V24.5796M23.7331 17.9983H20.24C18.5388 17.9983 17.6883 17.9983 17.0385 18.3294C16.467 18.6206 16.0023 19.0853 15.7111 19.6568C15.38 20.3066 15.38 21.1571 15.38 22.8583L15.38 24.0733C15.38 25.0168 15.38 25.4886 15.5341 25.8607C15.7397 26.3569 16.1339 26.7511 16.6301 26.9567C17.0022 27.1108 17.474 27.1108 18.4175 27.1108V31.4139C18.4175 31.649 18.4175 31.7665 18.4273 31.8655C18.5219 32.827 19.2826 33.5876 20.244 33.6823C20.343 33.6921 20.4606 33.6921 20.6956 33.6921C20.9307 33.6921 21.0482 33.6921 21.1472 33.6823C22.1087 33.5876 22.8693 32.827 22.964 31.8655C22.9737 31.7665 22.9738 31.649 22.9738 31.4139V27.1108H23.7331C25.5216 27.1108 27.7095 28.0695 29.3973 28.9896C30.382 29.5264 30.8744 29.7948 31.1968 29.7553C31.4959 29.7187 31.722 29.5844 31.8972 29.3394C32.0862 29.0752 32.0862 28.5465 32.0862 27.4892V17.6199C32.0862 16.5626 32.0862 16.0339 31.8972 15.7697C31.722 15.5247 31.4959 15.3904 31.1968 15.3538C30.8744 15.3143 30.382 15.5827 29.3973 16.1195C27.7095 17.0396 25.5216 17.9983 23.7331 17.9983Z" stroke="#636363" stroke-width="2.00999" stroke-linecap="round" stroke-linejoin="round"/>
</svg>
