<svg viewBox="0 0 48 48" fill="none" xmlns="http://www.w3.org/2000/svg">
<path d="M24 0C48 0 48 11.25 48 24C48 36.75 48 48 24 48C0 48 0 36.75 0 24C0 11.25 0 0 24 0Z" fill="#2971EB"/>
<path d="M35.6299 20.5296V24.5796M23.733 17.9983H20.2399C18.5387 17.9983 17.6881 17.9983 17.0384 18.3294C16.4668 18.6206 16.0022 19.0853 15.7109 19.6568C15.3799 20.3066 15.3799 21.1571 15.3799 22.8583L15.3799 24.0733C15.3799 25.0168 15.3799 25.4886 15.534 25.8607C15.7396 26.3569 16.1338 26.7511 16.6299 26.9567C17.0021 27.1108 17.4739 27.1108 18.4174 27.1108V31.4139C18.4174 31.649 18.4174 31.7665 18.4271 31.8655C18.5218 32.827 19.2825 33.5876 20.2439 33.6823C20.3429 33.6921 20.4604 33.6921 20.6955 33.6921C20.9306 33.6921 21.0481 33.6921 21.1471 33.6823C22.1085 33.5876 22.8692 32.827 22.9639 31.8655C22.9736 31.7665 22.9736 31.649 22.9736 31.4139V27.1108H23.733C25.5215 27.1108 27.7093 28.0695 29.3972 28.9896C30.3819 29.5264 30.8743 29.7948 31.1967 29.7553C31.4957 29.7187 31.7218 29.5844 31.8971 29.3394C32.0861 29.0752 32.0861 28.5465 32.0861 27.4892V17.6199C32.0861 16.5626 32.0861 16.0339 31.8971 15.7697C31.7218 15.5247 31.4957 15.3904 31.1967 15.3538C30.8743 15.3143 30.3819 15.5827 29.3972 16.1195C27.7093 17.0396 25.5215 17.9983 23.733 17.9983Z" stroke="white" stroke-width="2.00999" stroke-linecap="round" stroke-linejoin="round"/>
</svg>
