<svg viewBox="0 0 48 48" fill="none" xmlns="http://www.w3.org/2000/svg">
<path d="M24 0C48 0 48 11.25 48 24C48 36.75 48 48 24 48C0 48 0 36.75 0 24C0 11.25 0 0 24 0Z" fill="#F4F4F4"/>
<g clip-path="url(#clip0_210_27682)">
<path d="M30.125 23.375C30.5075 23.375 30.8787 23.42 31.25 23.4762V18.0538L22.8125 14.375L14.375 18.0538V23.5775C14.375 28.685 17.975 33.4662 22.8125 34.625C23.4312 34.4788 24.0275 34.265 24.6125 34.0063C23.8363 32.9038 23.375 31.565 23.375 30.125C23.375 26.4012 26.4012 23.375 30.125 23.375Z" fill="#636363"/>
<path d="M30.125 25.625C27.6388 25.625 25.625 27.6388 25.625 30.125C25.625 32.6112 27.6388 34.625 30.125 34.625C32.6112 34.625 34.625 32.6112 34.625 30.125C34.625 27.6388 32.6112 25.625 30.125 25.625ZM30.125 27.1775C30.8225 27.1775 31.385 27.7513 31.385 28.4375C31.385 29.1237 30.8113 29.6975 30.125 29.6975C29.4388 29.6975 28.865 29.1237 28.865 28.4375C28.865 27.7513 29.4275 27.1775 30.125 27.1775ZM30.125 33.2188C29.0787 33.2188 28.1675 32.7013 27.605 31.9025C27.6613 31.0925 29.3038 30.6875 30.125 30.6875C30.9462 30.6875 32.5887 31.0925 32.645 31.9025C32.0825 32.7013 31.1712 33.2188 30.125 33.2188Z" fill="#636363"/>
</g>
<defs>
<clipPath id="clip0_210_27682">
<rect width="27" height="27" fill="white" transform="translate(11 11)"/>
</clipPath>
</defs>
</svg>
