<svg viewBox="0 0 48 48" fill="none" xmlns="http://www.w3.org/2000/svg">
<path d="M24 0C48 0 48 11.25 48 24C48 36.75 48 48 24 48C0 48 0 36.75 0 24C0 11.25 0 0 24 0Z" fill="#F4F4F4"/>
<g clip-path="url(#clip0_210_28155)">
<path d="M21.125 27.875C18.1213 27.875 12.125 29.3825 12.125 32.375V34.625H30.125V32.375C30.125 29.3825 24.1287 27.875 21.125 27.875Z" fill="#636363"/>
<path d="M35.8624 18.695C35.8737 18.5712 35.8849 18.4475 35.8849 18.3125C35.8849 18.1775 35.8737 18.0537 35.8512 17.93L36.6837 17.2775C36.7624 17.2212 36.7737 17.1088 36.7287 17.03L35.9412 15.6688C35.8962 15.5788 35.7837 15.5563 35.7049 15.5788L34.7374 15.9725C34.5349 15.815 34.3099 15.6912 34.0737 15.59L33.9274 14.5438C33.9049 14.4425 33.8262 14.375 33.7249 14.375H32.1499C32.0487 14.375 31.9699 14.4425 31.9587 14.5438L31.8124 15.59C31.5762 15.6912 31.3512 15.8263 31.1487 15.9725L30.1699 15.5788C30.0799 15.545 29.9787 15.5788 29.9337 15.6688L29.1462 17.03C29.1012 17.12 29.1124 17.2212 29.1912 17.2775L30.0237 17.93C30.0012 18.0537 29.9899 18.1888 29.9899 18.3125C29.9899 18.4363 30.0012 18.5712 30.0237 18.695L29.1912 19.3475C29.1124 19.4037 29.1012 19.5162 29.1462 19.595L29.9337 20.9563C29.9787 21.0463 30.0912 21.0688 30.1699 21.0463L31.1487 20.6525C31.3512 20.81 31.5762 20.9338 31.8124 21.035L31.9587 22.0813C31.9699 22.1825 32.0487 22.25 32.1499 22.25H33.7249C33.8262 22.25 33.9049 22.1825 33.9162 22.0813L34.0624 21.035C34.2987 20.9338 34.5237 20.7987 34.7262 20.6525L35.7049 21.0463C35.7949 21.08 35.8962 21.0463 35.9412 20.9563L36.7287 19.595C36.7737 19.505 36.7624 19.4037 36.6837 19.3475L35.8624 18.695ZM32.9374 19.7188C32.1612 19.7188 31.5312 19.0887 31.5312 18.3125C31.5312 17.5363 32.1612 16.9062 32.9374 16.9062C33.7137 16.9062 34.3437 17.5363 34.3437 18.3125C34.3437 19.0887 33.7137 19.7188 32.9374 19.7188Z" fill="#636363"/>
<path d="M33.41 24.14L32.8475 23.1613C32.8137 23.0938 32.735 23.0713 32.6787 23.0938L31.9812 23.375C31.835 23.2625 31.6775 23.1725 31.5087 23.105L31.4075 22.3625C31.385 22.295 31.3175 22.25 31.25 22.25H30.125C30.0575 22.25 30.0012 22.295 29.99 22.3737L29.8887 23.1163C29.72 23.1838 29.5625 23.285 29.4162 23.3863L28.7187 23.105C28.6512 23.0825 28.5837 23.105 28.55 23.1725L27.9875 24.1512C27.9537 24.2187 27.965 24.2863 28.0212 24.3313L28.6175 24.7925C28.6062 24.8825 28.595 24.9725 28.595 25.0625C28.595 25.1525 28.6062 25.2537 28.6175 25.3325L28.0212 25.7937C27.965 25.8387 27.9537 25.9175 27.9875 25.9738L28.55 26.9525C28.5837 27.02 28.6625 27.0425 28.7187 27.02L29.4162 26.7387C29.5625 26.8512 29.72 26.9412 29.8887 27.0087L29.99 27.7513C30.0012 27.83 30.0575 27.875 30.125 27.875H31.25C31.3175 27.875 31.385 27.83 31.385 27.7513L31.4862 27.0087C31.655 26.9412 31.8125 26.84 31.9587 26.7387L32.6562 27.02C32.7237 27.0425 32.7912 27.02 32.825 26.9525L33.3875 25.9738C33.4212 25.9063 33.41 25.8387 33.3537 25.7937L32.7687 25.3325C32.78 25.2425 32.7912 25.1525 32.7912 25.0625C32.7912 24.9725 32.78 24.8713 32.7687 24.7925L33.365 24.3313C33.4212 24.2863 33.4325 24.2075 33.41 24.14ZM30.6875 25.9962C30.17 25.9962 29.7537 25.5687 29.7537 25.0625C29.7537 24.545 30.1812 24.1288 30.6875 24.1288C31.1937 24.1288 31.6212 24.5563 31.6212 25.0625C31.6212 25.58 31.205 25.9962 30.6875 25.9962Z" fill="#636363"/>
<path d="M16.3325 21.125H25.9288C26.2325 21.125 26.48 20.8775 26.48 20.5738V20.5512C26.48 20.2475 26.2325 20 25.9288 20H25.625C25.625 18.335 24.7137 16.9063 23.375 16.1188V17.1875C23.375 17.5025 23.1275 17.75 22.8125 17.75C22.4975 17.75 22.25 17.5025 22.25 17.1875V15.6575C21.89 15.5675 21.5188 15.5 21.125 15.5C20.7312 15.5 20.36 15.5675 20 15.6575V17.1875C20 17.5025 19.7525 17.75 19.4375 17.75C19.1225 17.75 18.875 17.5025 18.875 17.1875V16.1188C17.5362 16.9063 16.625 18.335 16.625 20H16.3325C16.0287 20 15.7812 20.2475 15.7812 20.5512V20.585C15.7812 20.8775 16.0287 21.125 16.3325 21.125Z" fill="#636363"/>
<path d="M21.125 25.625C23.2175 25.625 24.9612 24.185 25.4675 22.25H16.7825C17.2887 24.185 19.0325 25.625 21.125 25.625Z" fill="#636363"/>
</g>
<defs>
<clipPath id="clip0_210_28155">
<rect width="27" height="27" fill="white" transform="translate(11 11)"/>
</clipPath>
</defs>
</svg>
