<svg viewBox="0 0 48 48" fill="none" xmlns="http://www.w3.org/2000/svg">
<rect width="48" height="48" rx="7.11111" fill="black" fill-opacity="0.5"/>
<g clip-path="url(#clip0_469_27928)">
<path d="M29.25 9.97217V12.9722H19.3725L22.0575 10.2797L21 9.22217L16.5 13.7222L21 18.2222L22.0575 17.1647L19.3725 14.4722H30.75V9.97217H29.25Z" fill="white" fill-opacity="0.8"/>
</g>
<path d="M7.36078 35.1048C7.75278 35.1048 8.09811 35.0582 8.39678 34.9648C8.70011 34.8668 8.95211 34.7315 9.15278 34.5588C9.35811 34.3815 9.51212 34.1715 9.61478 33.9288C9.71745 33.6862 9.76878 33.4178 9.76878 33.1238C9.76878 32.5265 9.57278 32.0762 9.18078 31.7728C8.78878 31.4695 8.20078 31.3178 7.41678 31.3178H5.93278V35.1048H7.36078ZM11.9948 40.2778H10.7908C10.5434 40.2778 10.3614 40.1822 10.2448 39.9908L7.64078 36.4068C7.56145 36.2948 7.47511 36.2155 7.38178 36.1688C7.29311 36.1175 7.15311 36.0918 6.96178 36.0918H5.93278V40.2778H4.58178V30.2468H7.41678C8.05145 30.2468 8.59978 30.3122 9.06178 30.4428C9.52378 30.5688 9.90411 30.7532 10.2028 30.9958C10.5061 31.2385 10.7301 31.5325 10.8748 31.8778C11.0194 32.2185 11.0918 32.6012 11.0918 33.0258C11.0918 33.3805 11.0358 33.7118 10.9238 34.0198C10.8118 34.3278 10.6484 34.6055 10.4338 34.8528C10.2238 35.0955 9.96478 35.3032 9.65678 35.4758C9.35345 35.6485 9.00811 35.7792 8.62078 35.8678C8.79345 35.9658 8.94278 36.1082 9.06878 36.2948L11.9948 40.2778ZM17.36 35.9588C17.36 35.6695 17.318 35.4058 17.234 35.1678C17.1546 34.9252 17.0356 34.7175 16.877 34.5448C16.723 34.3675 16.534 34.2322 16.31 34.1388C16.086 34.0408 15.8316 33.9918 15.547 33.9918C14.9496 33.9918 14.476 34.1668 14.126 34.5168C13.7806 34.8622 13.566 35.3428 13.482 35.9588H17.36ZM18.368 39.2838C18.214 39.4705 18.0296 39.6338 17.815 39.7738C17.6003 39.9092 17.3693 40.0212 17.122 40.1098C16.8793 40.1985 16.6273 40.2638 16.366 40.3058C16.1046 40.3525 15.8456 40.3758 15.589 40.3758C15.099 40.3758 14.6463 40.2942 14.231 40.1308C13.8203 39.9628 13.4633 39.7202 13.16 39.4028C12.8613 39.0808 12.628 38.6842 12.46 38.2128C12.292 37.7415 12.208 37.2002 12.208 36.5888C12.208 36.0942 12.2826 35.6322 12.432 35.2028C12.586 34.7735 12.8053 34.4025 13.09 34.0898C13.3746 33.7725 13.7223 33.5252 14.133 33.3478C14.5436 33.1658 15.0056 33.0748 15.519 33.0748C15.9436 33.0748 16.3356 33.1472 16.695 33.2918C17.059 33.4318 17.3716 33.6372 17.633 33.9078C17.899 34.1738 18.1066 34.5052 18.256 34.9018C18.4053 35.2938 18.48 35.7418 18.48 36.2458C18.48 36.4418 18.459 36.5725 18.417 36.6378C18.375 36.7032 18.2956 36.7358 18.179 36.7358H13.44C13.454 37.1838 13.5146 37.5735 13.622 37.9048C13.734 38.2362 13.888 38.5138 14.084 38.7378C14.28 38.9572 14.5133 39.1228 14.784 39.2348C15.0546 39.3422 15.358 39.3958 15.694 39.3958C16.0066 39.3958 16.275 39.3608 16.499 39.2908C16.7276 39.2162 16.9236 39.1368 17.087 39.0528C17.2503 38.9688 17.3856 38.8918 17.493 38.8218C17.605 38.7472 17.7006 38.7098 17.78 38.7098C17.8826 38.7098 17.962 38.7495 18.018 38.8288L18.368 39.2838ZM22.1328 40.3898C21.5728 40.3898 21.1411 40.2335 20.8378 39.9208C20.5391 39.6082 20.3898 39.1578 20.3898 38.5698V34.2298H19.5358C19.4611 34.2298 19.3981 34.2088 19.3468 34.1668C19.2954 34.1202 19.2698 34.0502 19.2698 33.9568V33.4598L20.4318 33.3128L20.7188 31.1218C20.7328 31.0518 20.7631 30.9958 20.8098 30.9538C20.8611 30.9072 20.9264 30.8838 21.0058 30.8838H21.6358V33.3268H23.6868V34.2298H21.6358V38.4858C21.6358 38.7845 21.7081 39.0062 21.8528 39.1508C21.9974 39.2955 22.1841 39.3678 22.4128 39.3678C22.5434 39.3678 22.6554 39.3515 22.7488 39.3188C22.8468 39.2815 22.9308 39.2418 23.0008 39.1998C23.0708 39.1578 23.1291 39.1205 23.1758 39.0878C23.2271 39.0505 23.2714 39.0318 23.3088 39.0318C23.3741 39.0318 23.4324 39.0715 23.4838 39.1508L23.8478 39.7458C23.6331 39.9465 23.3741 40.1052 23.0708 40.2218C22.7674 40.3338 22.4548 40.3898 22.1328 40.3898ZM30.8043 33.1868V40.2778H30.0623C29.885 40.2778 29.773 40.1915 29.7263 40.0188L29.6283 39.2558C29.3203 39.5965 28.975 39.8718 28.5923 40.0818C28.2097 40.2872 27.771 40.3898 27.2763 40.3898C26.889 40.3898 26.546 40.3268 26.2473 40.2008C25.9533 40.0702 25.706 39.8882 25.5053 39.6548C25.3047 39.4215 25.153 39.1392 25.0503 38.8078C24.9523 38.4765 24.9033 38.1102 24.9033 37.7088V33.1868H26.1493V37.7088C26.1493 38.2455 26.2707 38.6608 26.5133 38.9548C26.7607 39.2488 27.1363 39.3958 27.6403 39.3958C28.009 39.3958 28.352 39.3095 28.6693 39.1368C28.9913 38.9595 29.2877 38.7168 29.5583 38.4088V33.1868H30.8043ZM33.963 34.6078C34.187 34.1225 34.4623 33.7445 34.789 33.4738C35.1156 33.1985 35.5146 33.0608 35.986 33.0608C36.1353 33.0608 36.2776 33.0772 36.413 33.1098C36.553 33.1425 36.6766 33.1938 36.784 33.2638L36.693 34.1948C36.665 34.3115 36.595 34.3698 36.483 34.3698C36.4176 34.3698 36.322 34.3558 36.196 34.3278C36.07 34.2998 35.9276 34.2858 35.769 34.2858C35.545 34.2858 35.3443 34.3185 35.167 34.3838C34.9943 34.4492 34.838 34.5472 34.698 34.6778C34.5626 34.8038 34.439 34.9625 34.327 35.1538C34.2196 35.3405 34.1216 35.5552 34.033 35.7978V40.2778H32.78V33.1868H33.494C33.6293 33.1868 33.7226 33.2125 33.774 33.2638C33.8253 33.3152 33.8603 33.4038 33.879 33.5298L33.963 34.6078ZM39.0556 34.2158C39.2096 34.0432 39.3729 33.8868 39.5456 33.7468C39.7182 33.6068 39.9002 33.4878 40.0916 33.3898C40.2876 33.2872 40.4929 33.2102 40.7076 33.1588C40.9269 33.1028 41.1626 33.0748 41.4146 33.0748C41.8019 33.0748 42.1426 33.1402 42.4366 33.2708C42.7352 33.3968 42.9826 33.5788 43.1786 33.8168C43.3792 34.0502 43.5309 34.3325 43.6336 34.6638C43.7362 34.9952 43.7876 35.3615 43.7876 35.7628V40.2778H42.5346V35.7628C42.5346 35.2262 42.4109 34.8108 42.1636 34.5168C41.9209 34.2182 41.5499 34.0688 41.0506 34.0688C40.6819 34.0688 40.3366 34.1575 40.0146 34.3348C39.6972 34.5122 39.4032 34.7525 39.1326 35.0558V40.2778H37.8796V33.1868H38.6286C38.8059 33.1868 38.9156 33.2732 38.9576 33.4458L39.0556 34.2158Z" fill="white" fill-opacity="0.9"/>
<defs>
<clipPath id="clip0_469_27928">
<rect width="18" height="18" fill="white" transform="translate(15 4.72217)"/>
</clipPath>
</defs>
</svg>
